<?xml version="1.0" standalone="no"?>
<!DOCTYPE svg PUBLIC "-//W3C//DTD SVG 20010904//EN"
 "http://www.w3.org/TR/2001/REC-SVG-20010904/DTD/svg10.dtd">
<svg version="1.0" xmlns="http://www.w3.org/2000/svg"
 width="456.000000pt" height="456.000000pt" viewBox="0 0 456.000000 456.000000"
 preserveAspectRatio="xMidYMid meet">

<g transform="translate(0.000000,456.000000) scale(0.100000,-0.100000)"
fill="#000000" stroke="none">
<path d="M2105 3341 c-84 -12 -91 -16 -136 -82 -51 -75 -83 -92 -189 -99 -47
-3 -98 -13 -114 -21 -82 -40 -95 -154 -95 -849 0 -623 6 -682 78 -743 45 -37
118 -42 661 -42 543 0 616 5 661 42 71 61 79 128 79 738 0 690 -14 814 -96
855 -16 8 -67 17 -114 20 -101 6 -127 19 -188 96 -24 30 -56 61 -71 69 -34 17
-380 29 -476 16z m370 -138 c21 -10 43 -26 49 -35 15 -25 -25 -63 -79 -77 -56
-14 -214 -14 -270 0 -48 12 -91 50 -82 73 9 23 55 49 101 57 71 13 239 2 281
-18z m-452 -208 c69 -32 148 -45 287 -45 139 0 216 12 292 47 57 25 72 28 183
28 l120 0 3 -689 c2 -545 0 -691 -10 -698 -15 -9 -1148 -11 -1172 -2 -14 6
-16 76 -16 693 0 378 3 691 8 695 4 5 61 6 127 3 103 -4 128 -8 178 -32z"/>
<path d="M2418 2657 c-41 -25 -183 -160 -300 -285 -148 -159 -208 -279 -208
-419 l0 -73 28 0 c41 0 171 26 219 42 64 23 121 60 213 140 110 95 294 299
320 354 46 99 10 213 -79 250 -53 22 -149 18 -193 -9z m148 -122 c10 -25 -68
-119 -240 -290 -149 -147 -225 -209 -242 -193 -13 13 8 65 49 119 77 103 327
351 372 370 32 12 55 10 61 -6z"/>
</g>
</svg>
