<?xml version="1.0" standalone="no"?>
<!DOCTYPE svg PUBLIC "-//W3C//DTD SVG 20010904//EN"
 "http://www.w3.org/TR/2001/REC-SVG-20010904/DTD/svg10.dtd">
<svg version="1.0" xmlns="http://www.w3.org/2000/svg"
 width="120.000000pt" height="129.000000pt" viewBox="0 0 120.000000 129.000000"
 preserveAspectRatio="xMidYMid meet">

<g transform="translate(0.000000,129.000000) scale(0.100000,-0.100000)"
fill="#000000" stroke="none">
<path d="M493 1030 c-13 -5 -23 -13 -23 -18 0 -4 -9 -18 -20 -30 -15 -16 -32
-22 -65 -22 -77 0 -79 -10 -83 -306 -4 -270 3 -325 41 -346 31 -18 483 -18
514 0 38 21 45 76 41 346 -4 296 -6 306 -83 306 -45 0 -53 5 -89 55 -12 17
-27 20 -113 22 -54 2 -108 -2 -120 -7z m182 -54 c16 -12 17 -16 6 -30 -10 -12
-31 -16 -81 -16 -50 0 -71 4 -81 16 -21 25 14 44 81 44 32 0 64 -6 75 -14z
m-186 -83 c34 -23 188 -23 222 0 15 11 43 17 76 17 l53 0 0 -280 0 -280 -240
0 -240 0 0 280 0 280 53 0 c33 0 61 -6 76 -17z"/>
<path d="M558 683 c-91 -92 -118 -137 -118 -199 l0 -37 53 7 c64 9 106 36 197
132 57 61 70 80 70 107 0 52 -24 77 -73 77 -40 0 -47 -5 -129 -87z m147 27 c9
-14 -180 -204 -194 -196 -18 11 16 59 95 137 72 69 87 78 99 59z"/>
</g>
</svg>
